<svg width="56" height="17" viewBox="0 0 56 17" fill="none" xmlns="http://www.w3.org/2000/svg">
<path d="M52.3719 0.300659L48.9097 0.300659C47.8316 0.300659 47.0335 0.601266 46.5566 1.65858L39.9017 16.7513H44.6078C44.6078 16.7513 45.3853 14.7196 45.5511 14.2842H51.2938C51.4286 14.8647 51.8328 16.7513 51.8328 16.7513H55.9999L52.3719 0.300659ZM46.8469 10.9153C47.22 9.972 48.6194 6.31285 48.6194 6.31285C48.6194 6.30248 49.003 5.34883 49.2207 4.74761L49.5213 6.16773C49.5213 6.16773 50.3816 10.086 50.5579 10.9257H46.8469V10.9153Z" fill="#262833"/>
<path d="M33.9207 4.86159C33.9103 5.63903 34.8744 6.14695 36.45 6.90365C39.0311 8.08536 40.2335 9.49512 40.2128 11.3817C40.1817 14.7921 37.1238 17 32.3969 17C30.3859 16.9793 28.4475 16.575 27.4006 16.1189L28.0329 12.4287L28.6134 12.6982C30.075 13.3098 31.039 13.5585 32.8323 13.5585C34.1177 13.5585 35.4963 13.0506 35.5067 11.9518C35.517 11.2262 34.9262 10.7079 33.1847 9.89939C31.4744 9.11159 29.225 7.79512 29.2457 5.4317C29.2664 2.23902 32.3969 0 36.8232 0C38.5646 0 39.964 0.362803 40.8451 0.69451L40.2335 4.26037L39.8293 4.07378C39 3.74207 37.9323 3.42073 36.4707 3.44146C34.7396 3.44146 33.9207 4.17744 33.9207 4.86159Z" fill="#262833"/>
<path d="M27.4006 0.290283L24.5915 16.7409H20.1134L22.9122 0.290283L27.4006 0.290283Z" fill="#262833"/>
<path d="M11.2921 8.75916C9.79938 4.9549 6.22316 1.79331 0.801819 0.476849L0.864011 0.145142L7.81949 0.145142C8.76278 0.176239 9.51947 0.47685 9.77862 1.48234L11.2921 8.75916Z" fill="#262833"/>
<path d="M21.1085 0.300659L14.039 16.7305H9.3018L5.29022 3.01651C8.17193 4.86163 10.6286 7.79517 11.4994 9.83724L11.9762 11.5372L16.3713 0.311027L21.1085 0.311027V0.300659Z" fill="#262833"/>
</svg>
